HIERARCHY
ROOT Hips
{
	OFFSET 0.00000 0.00000 0.00000
	CHANNELS 6 Xposition Yposition Zposition Zrotation Yrotation Xrotation 
	JOINT LHipJoint
	{
		OFFSET 0 0 0
		CHANNELS 3 Zrotation Yrotation Xrotation
		JOINT LeftUpLeg
		{
			OFFSET 1.85742 -1.74412 1.01653
			CHANNELS 3 Zrotation Yrotation Xrotation
			JOINT LeftLeg
			{
				OFFSET 2.54803 -7.00067 0.00000
				CHANNELS 3 Zrotation Yrotation Xrotation
				JOINT LeftFoot
				{
					OFFSET 2.51202 -6.90173 0.00000
					CHANNELS 3 Zrotation Yrotation Xrotation
					JOINT LeftToeBase
					{
						OFFSET 0.17547 -0.48209 1.64281
						CHANNELS 3 Zrotation Yrotation Xrotation
						End Site
						{
							OFFSET 0.00000 -0.00000 0.86587
						}
					}
				}
			}
		}
	}
	JOINT RHipJoint
	{
		OFFSET 0 0 0
		CHANNELS 3 Zrotation Yrotation Xrotation
		JOINT RightUpLeg
		{
			OFFSET -1.95533 -1.74413 1.01654
			CHANNELS 3 Zrotation Yrotation Xrotation
			JOINT RightLeg
			{
				OFFSET -2.49465 -6.85400 0.00000
				CHANNELS 3 Zrotation Yrotation Xrotation
				JOINT RightFoot
				{
					OFFSET -2.54783 -7.00010 0.00000
					CHANNELS 3 Zrotation Yrotation Xrotation
					JOINT RightToeBase
					{
						OFFSET -0.18513 -0.50864 1.69288
						CHANNELS 3 Zrotation Yrotation Xrotation
						End Site
						{
							OFFSET -0.00000 -0.00000 0.89242
						}
					}
				}
			}
		}
	}
	JOINT LowerBack
	{
		OFFSET 0 0 0
		CHANNELS 3 Zrotation Yrotation Xrotation
		JOINT Spine
		{
			OFFSET 0.02173 2.16290 -0.15998
			CHANNELS 3 Zrotation Yrotation Xrotation
			JOINT Spine1
			{
				OFFSET 0.00940 2.17323 -0.00467
				CHANNELS 3 Zrotation Yrotation Xrotation
				JOINT Neck
				{
					OFFSET 0 0 0
					CHANNELS 3 Zrotation Yrotation Xrotation
					JOINT Neck1
					{
						OFFSET 0.01475 1.85823 0.31113
						CHANNELS 3 Zrotation Yrotation Xrotation
						JOINT Head
						{
							OFFSET 0.01902 1.88783 -0.37187
							CHANNELS 3 Zrotation Yrotation Xrotation
							End Site
							{
								OFFSET 0.00489 1.93211 -0.16169
							}
						}
					}
				}
				JOINT LeftShoulder
				{
					OFFSET 0 0 0
					CHANNELS 3 Zrotation Yrotation Xrotation
					JOINT LeftArm
					{
						OFFSET 3.34199 1.32384 -0.07862
						CHANNELS 3 Zrotation Yrotation Xrotation
						JOINT LeftForeArm
						{
							OFFSET 5.27950 -0.00000 0.00000
							CHANNELS 3 Zrotation Yrotation Xrotation
							JOINT LeftHand
							{
								OFFSET 3.53504 -0.00000 0.00000
								CHANNELS 3 Zrotation Yrotation Xrotation
								JOINT LeftFingerBase
								{
									OFFSET 0 0 0
									CHANNELS 3 Zrotation Yrotation Xrotation
									JOINT LeftHandIndex1
									{
										OFFSET 0.66795 -0.00000 0.00000
										CHANNELS 3 Zrotation Yrotation Xrotation
										End Site
										{
											OFFSET 0.53852 -0.00000 0.00000
										}
									}
								}
								JOINT LThumb
								{
									OFFSET 0 0 0
									CHANNELS 3 Zrotation Yrotation Xrotation
									End Site
									{
										OFFSET 0.54674 -0.00000 0.54674
									}
								}
							}
						}
					}
				}
				JOINT RightShoulder
				{
					OFFSET 0 0 0
					CHANNELS 3 Zrotation Yrotation Xrotation
					JOINT RightArm
					{
						OFFSET -3.16149 1.45719 -0.50507
						CHANNELS 3 Zrotation Yrotation Xrotation
						JOINT RightForeArm
						{
							OFFSET -5.25035 -0.00000 0.00000
							CHANNELS 3 Zrotation Yrotation Xrotation
							JOINT RightHand
							{
								OFFSET -3.58884 -0.00000 0.00000
								CHANNELS 3 Zrotation Yrotation Xrotation
								JOINT RightFingerBase
								{
									OFFSET 0 0 0
									CHANNELS 3 Zrotation Yrotation Xrotation
									JOINT RightHandIndex1
									{
										OFFSET -0.77924 -0.00000 0.00000
										CHANNELS 3 Zrotation Yrotation Xrotation
										End Site
										{
											OFFSET -0.62824 -0.00000 0.00000
										}
									}
								}
								JOINT RThumb
								{
									OFFSET 0 0 0
									CHANNELS 3 Zrotation Yrotation Xrotation
									End Site
									{
										OFFSET -0.63783 -0.00000 0.63783
									}
								}
							}
						}
					}
				}
			}
		}
	}
}
MOTION
Frames: 7
Frame Time: 0.0384615
0.00 0.00 0.00 0 0 0 0 0 0 -21 0 0 0 0 0 0 0 0 0 0 0 0 0 0 21 0 0 0 0 0 0 0 0 0 0 0 0 0 0 0 0 0 0 0 0 0 0 -16 0 0 21 0 0 11 0 0 0 -8 0 0 0 0 0 0 0 0 0 0 0 0 0 0 0 0 0 0 0 0 8 0 0 0 0 0 0 0 0 0 0 0 0 0 0 0 0 0
0.00 0.00 0.00 -53.1149 88.2112 -45.8659 0.0000 0.0000 0.0000 -15.1485 -30.4680 -10.1666 2.5603 9.9467 28.8042 0.3195 14.7078 -23.9996 2.2010 -9.2728 -26.6526 0.0000 0.0000 0.0000 24.4305 26.6145 -0.5452 -1.2270 -7.0253 19.7904 2.2224 -32.2396 -34.2249 -0.4202 -4.1608 11.5295 1.9583 2.1702 2.1164 -0.1339 3.0078 -3.1664 -1.4081 1.4413 -4.3436 2.8452 1.1961 -23.5400 -2.3240 1.5540 25.7661 -1.0769 0.7352 12.5074 -0.0000 -0.0000 0.0000 -42.4264 11.2071 22.7873 56.0057 -55.1480 -31.0396 -0.0000 0.0000 -49.1898 31.1987 54.7610 26.3178 -7.1250 0.0000 -0.0000 -80.8966 83.6686 -74.5527 -0.0000 -0.0000 0.0000 39.2931 -14.6682 31.7791 -59.9493 56.2964 -34.2989 0.0000 -0.0000 -21.1321 -10.1589 16.1649 -2.8559 7.1250 -0.0000 -0.0000 11.7365 -13.8130 8.7850
0.00 0.00 0.00 -126.4480 88.0592 -119.3610 0.0000 0.0000 0.0000 -14.7399 -29.2338 -11.0521 2.5846 9.9901 28.9446 0.4922 11.8350 -22.3220 2.4036 -9.6604 -27.8838 0.0000 0.0000 0.0000 24.6361 24.2901 -0.5699 -1.1451 -6.7951 19.1098 2.2430 -32.2574 -34.1344 -0.5651 -4.8146 13.3804 2.5826 1.9998 2.2982 -0.2324 2.8064 -3.1208 -1.8533 1.3181 -4.3739 2.0532 0.6901 -23.8283 -1.2494 0.7335 24.5387 -0.6744 0.4175 12.0464 -0.0000 -0.0000 0.0000 -9.8214 4.0005 -4.0926 69.5946 -58.3667 -42.4253 -0.0000 0.0000 -47.1840 32.6340 51.8393 26.7255 -7.1250 0.0000 -0.0000 -54.8533 84.0728 -49.8475 -0.0000 -0.0000 0.0000 5.0750 -13.7522 18.2866 -45.2590 50.8947 -22.4396 0.0000 -0.0000 -24.6604 -12.3608 11.5765 -2.5181 7.1250 -0.0000 -0.0000 10.3440 -18.2453 6.6955
0.00 0.00 0.00 -126.7090 88.7176 -120.8530 0.0000 0.0000 0.0000 -16.0725 -27.4961 -9.6134 2.4640 9.7722 28.2422 0.5443 10.8819 -21.8295 2.2337 -9.3367 -26.8544 0.0000 0.0000 0.0000 24.5872 24.0052 0.9341 -1.1473 -6.8013 19.1280 2.2030 -32.2300 -34.3245 -0.4960 -4.5151 12.5306 1.8359 1.7268 0.0620 -0.4109 2.3883 -3.7954 -1.5318 1.1457 -3.8487 0.9446 -0.1280 -20.0753 1.3242 -0.5679 26.2970 0.2735 0.1522 11.9833 -0.0000 -0.0000 0.0000 -1.6369 -16.5117 7.9798 81.4109 -59.7194 -52.5687 -0.0000 0.0000 -45.8576 33.8094 51.5351 27.6703 -7.1250 0.0000 -0.0000 -52.0038 84.5302 -47.5567 -0.0000 -0.0000 0.0000 10.4997 13.3171 4.6438 -39.7002 47.8913 -18.2165 0.0000 -0.0000 -13.8715 -18.5319 15.6772 -5.1758 7.1250 -0.0000 -0.0000 6.1323 -13.5592 4.5504
0.00 0.00 0.00 -80.2478 88.6166 -75.1265 0.0000 0.0000 0.0000 -16.2485 -26.9148 -8.6734 2.4831 9.8071 28.3544 0.5200 11.5889 -22.3241 2.2813 -9.4290 -27.1469 0.0000 0.0000 0.0000 25.3261 24.6276 2.2975 -1.0985 -6.6599 18.7115 2.3438 -32.4977 -34.0114 -0.4908 -4.4920 12.4652 2.1067 2.0455 -2.3401 -0.2801 2.7887 -4.0009 -1.4663 1.3626 -2.6875 -1.8448 -1.2796 -18.8272 4.3336 -2.0904 28.8992 1.6946 -0.3242 12.8485 -0.0000 -0.0000 0.0000 -31.5045 -31.7163 39.4595 70.2534 -58.4741 -42.9865 -0.0000 0.0000 -43.9397 39.2794 50.1350 32.1196 -7.1250 0.0000 -0.0000 -31.8404 86.6031 -30.0031 -0.0000 -0.0000 0.0000 41.2939 26.6367 21.8205 -37.9224 46.7897 -16.9091 0.0000 -0.0000 -11.1339 -29.2283 22.5335 -12.1024 7.1250 -0.0000 -0.0000 -0.1670 -4.5521 -0.1532
0.00 0.00 0.00 -121.9540 88.7276 -117.0020 0.0000 0.0000 0.0000 -17.3486 -26.3684 -7.4762 2.4900 9.8197 28.3947 0.7384 10.2471 -23.0035 2.3081 -9.4803 -27.3096 0.0000 0.0000 0.0000 25.2990 23.5998 3.5403 -1.1139 -6.7051 18.8446 1.8090 -31.7940 -35.7924 -0.6405 -5.1199 14.2509 1.4339 2.6130 -2.3343 -1.0300 3.5838 -5.2076 -1.9019 1.7644 -3.9064 -1.9855 -2.0294 -17.3020 4.2973 -3.1337 25.0738 1.4710 -0.9271 11.0833 -0.0000 -0.0000 0.0000 -25.4507 -19.5500 22.7606 98.0113 -59.7561 -66.9323 -0.0000 0.0000 -41.6374 8.7129 53.6268 7.0344 -7.1250 0.0000 -0.0000 -70.4880 74.6626 -54.9063 -0.0000 -0.0000 0.0000 33.0931 27.6709 29.8605 -49.5622 52.8174 -25.8249 0.0000 -0.0000 -15.6798 -25.2972 21.5563 -9.8514 7.1250 -0.0000 -0.0000 2.1625 -6.3911 1.9098
0.00 0.00 0.00 -145.2370 87.1887 -139.9250 0.0000 0.0000 0.0000 -16.1694 -26.1670 -8.8301 2.5166 9.8680 28.5504 0.7714 8.5309 -21.7984 2.5076 -9.8517 -28.4979 0.0000 0.0000 0.0000 25.5499 22.0944 2.9375 -0.9895 -6.3312 17.7484 2.1316 -32.2804 -34.8600 -0.5809 -4.8804 13.5678 0.6948 2.2855 -1.6753 -0.8205 3.1222 -4.4819 -1.2793 1.5577 -3.5889 -1.0312 -2.3065 -19.0997 4.5304 -3.9029 22.9529 1.2428 -1.2149 10.6627 -0.0000 -0.0000 0.0000 -47.6782 -21.8597 51.0249 103.4574 -59.3045 -71.6272 -0.0000 0.0000 -46.3451 -17.1485 60.8368 -15.0803 -7.1250 0.0000 -0.0000 -99.3484 66.7171 -75.1007 -0.0000 -0.0000 0.0000 52.8199 22.8678 48.7147 -60.3599 56.4051 -34.6407 0.0000 0.0000 15.3184 -30.1346 34.2003 -18.0707 7.1250 -0.0000 -0.0000 1.4017 8.1707 1.5871
